<?xml version="1.0" encoding="UTF-8"?>
<svg id="_レイヤー_2" data-name="レイヤー 2" xmlns="http://www.w3.org/2000/svg" viewBox="0 0 142.27 139.93">
  <defs>
    <style>
      .cls-1 {
        font-size: 16px;
      }

      .cls-1, .cls-2 {
        font-family: AB-roman-90ms-RKSJ-H, AB-roman;
      }

      .cls-2 {
        font-size: 19.83px;
        letter-spacing: -.1em;
      }
    </style>
  </defs>
  <g id="_レイヤー_1-2" data-name="レイヤー 1">
    <g>
      <path d="M62.74,88.35l-5.56-.29c-4.05-.21-8.16-.11-12.01-1.59-1.6-.62-3.16-1.3-4.88-1.57-1.84-.28-2.83-1.25-4.25-2.23-3.87-2.67-7.47-4.9-9.9-9.32-2.05.75-4.66,1.46-6.88,1.81-.11,1-.4,2.62-1.04,3.39-.38.46-2.1.68-2.53.27s-.75-1.44-.91-2.21l-.24-1.17c-.05-.24-1.08-.12-1.05-.06.02,1.02-.07,2.16-.49,2.71s-2.27,1.1-2.83.67c-1.14-.86-1-2.76-.52-4.35l-5.36-2.03c-.53-.2-1.17-1.21-1.12-1.74s1.42-1.3,2.03-1.1l4.41,1.45-.03-3.14c0-.67.82-1.85,1.46-1.96.76-.13,2.08.51,2.18,1.22l.75,5.29c1.05-1.74-.1-2.79-.26-4.39.38-.68.9-1.53,1.27-1.96.42-.5,2.4-.16,2.59.45.37,1.73.91,3.59,1.63,5.53,2.03-.53,3.79-1.3,5.39-2.38l-.86-5.32-1.87-.58c-1.5-.47-3.73-1.16-5.07-1.04-1.15,1.04-1.75,1.47-3.04.94-.76-.31-1.47-1.71-.95-2.5.36-.56,1.01-1.43.7-1.7l-1.32-1.18c-.31-.28-1.15.93-1.56,1.08l-2.87,1.09c-.42.16-1.34.14-1.65-.15s-.13-1.44.17-1.75l2.66-2.69c1.1-1.12-3.68-5.55-1.31-7.73,1.58-1.45,4.31.72,4.83,2.26,1.15.16,2.35.31,3.21.67,1.59.67-2.61,4.37.28,5.85.88-.32,1.84-1.42,2.65-2.41.6-.74,2.91-.33,3.29.51.58,1.28.4,2.21-.61,3.74l4.17.62c1.51-3.01,2.93-5.26,5.11-8.34l-3.29-2.48-2.84.66-2.76.54c-.64.12-1.81-1.28-1.49-2.08.52-1.28,2.33-2,3.54-2.68.46-.29-.54-1.94-1.05-1.74-.86.34-2.11.75-2.85.62-.68-.11-1.94-1.49-1.56-2.07l2.21-2.65-1.38-3.93c.14-.85,1.94-1.3,2.97-1.12,1.86.34,1.32,4.45,3.34,2.58,1.41-1.31,3.2-1.92,4.74-.34-.71,1.89-3.43,2.09-3.77,3.82-.11.56.9,1.68,1.32,1.69,1.04-.8,2.28-1.77,3.44-1.96.95-.15,2.06.89,2.3,1.7.59,1.92-2.12,2.33-2.33,3.86-.11.81,1.08,2.09,2.34,2.67.42.19,1.34-.6,1.66-.97,1.61-1.83,3.3-2.94,5.35-4.08,5.22-2.91,10.47-5.21,16.17-6.99,4.63-1.45,8.99-2.72,13.96-2.74l1.75-3.13c1.91-3.41,5.68-5.56,9.38-6.85l4.23-.13,1.3-2.23c1.04-.71,4.12.12,4.22,1.47.14,1.74.07,2.53,1.62,3.58,3.11,2.11,6.2,5.39,6.39,9.37l.27,5.79,3.39,2.36c2.2,1.53,4.25,3.29,6.26,5.17,2.68-.09,5.59-1.73,7.72-3.57-.63-.92-1.33-2.19-.84-3.15.82-1.6,3.54.85,4.93-.05,1.85-1.19-1.35-3.16-.07-4.53.42-.44,1.63-.31,2.28-.06l1.37.52c.78.3.89-2.82,2.92-2.93.77-.04,2.43.83,2.23,1.53-.72,1.12-1.81,2.39-2.37,3.56-.58,1.23,3.65,3.11,2.82,3.64l-.93.6c-1.86,2.52-3.44-2.49-5.32-.68-1.77,1.71,2.45,3.33-.52,5.6-1.06-.37-2.41-1.24-3.35-1.92l-4.89,2.8-3.32,1.61,5.34,6.8c1.9.41,4.11.45,5.91.02l-.66-4.51c.08-.74,2.04-.95,2.76-.46.61.42,1.16,1.54,1.4,2.46l.3,1.15c.07.27,2.27-.36,2.33-.62.39-1.75-.59-3,.23-4.3.28-.44,1.82-.6,2.19-.24.45.44,1,1.24,1.54,2.09,1.89-.72,4.11-.62,5.67,1.28l-3.23,2.19c-1.31.89-1.61,1.89-1.41,3.65.09.78-2.28,1.37-2.68.63-.68-1.24-1.23-1.75-2.17-1.53-2.97.7-.46,2.75-1.82,4.67-.31.43-1.58,1.01-2.03.72-.94-.6-1.31-2.19-1.54-3.55l-4.93.73c-.36.05-1.29.36-1.33.69l-.24,1.88c-.3,2.34.63,4.08,2.89,4.99,1.39-1.63.63-3.96,1.5-4.11.41-.07,1.42.02,1.8.17.97.38-.75,3.66.7,4.56.54.34,1.86.4,2.5.25,1.5-.35.39-2.22,1.83-4.72.29-.5,2.13-.52,2.42.06.41.81.55,2.42.64,3.72l3.26-.77c.66-.92,1.42-1.76,2.09-1.65,1.03.16,2.21.73,2.31,1.42.14,1.01-.47,2.26-1.33,2.8l-4.75,2.93c-.32.2-1.41.2-1.47.54l-.28,1.73c-.14.84-1.85,1.68-2.76,1.37l-1.41-2.54c-.93-.19-3.37-.4-3.86.44l-1.3,2.27c-.32.56-2.21-.03-2.34-.68l-.51-2.73-4.2-.72c-1.88,2.71-3.78,5.39-6.57,6.95l-4.74,2.64c-5.55,3.1-16.53,3.82-23.75,4.38l-2.51,1.95c-.86.67-2.01,1.25-3.05,1.8-.62.64-1.21,1.49-1.78,1.81s-2.43.08-2.82-.44c-.31-.42-.44-1.77-.48-2.37-1.56-2.21-4.21-3.07-7.04-3.22ZM106.27,77.86c3.18-2.51,5.11-5.13,6.78-8.57,1.76-3.62,1.88-7.03-.2-10.62-1.17-2.03-2.4-4.01-4.15-5.64-1.52-1.42-2.89-3.13-4.58-4.3l-6.5-4.51c-2.23,2.18-4.06,3.61-6.66,4.73-1.75.76-3.59,2.02-5.34,2.59-2.92.95-5.83,1.34-8.73,1.62-3.17.3-5.48-1.41-6.97-4.13-1.05-1.91-3.33-2.36-2.6-9.46l-8.02.98c-2.26.28-4.77,1.49-6.95,2.24-6.56,2.26-11.26,4-16.48,8.82-1.91,1.76-3.97,3.24-4.98,5.96-.9,2.42-1.8,5.22-1.63,7.95.62,9.56,9.53,15.16,18.72,17.01,2.48.5,4.94,1.78,7.56,1.58,4.19-.33,8.12-.2,12.32-.05,7.78.27,15.53.28,23.24-.07,5.78-.26,10.77-2.67,15.16-6.14ZM92.15,44.81c-4.04-1.23-6.32.73-11.46-.66-3.44-.93-6.57-1.92-9.82-4.01-.88,3.11.16,6.65,2.82,8.43,2.52,1.68,5.07,1.94,7.96,1.1,3.68-1.08,7.19-2.4,10.5-4.85Z"/>
      <path d="M50.02,74.94c-.82-.57-.93-2.59-.02-2.77,1.65-.32,3.13.52,4.5,1.36,1.26.77,2.78,1.12,4.11,1.61,6.03,2.22,11.91,2.46,18.24,1.58,6.95-.98,10.6-1.72,16.82-6.07,1.1-.77,3.25.75,3.33,2.12l-6.07,3.63c-5.02,3.01-17.14,4.53-23.19,3.98s-12.48-1.78-17.72-5.44Z"/>
      <path d="M41.3,64.38c-.96-.74-1.76-3.05-1.29-4.28.35-.92,1.84-2.48,2.72-2.83,2.39-.94,5.12.58,6.32,2.51.03,2.2-.68,4.02-2.24,4.93-1.66.97-3.6,1.15-5.52-.33Z"/>
      <path d="M103.66,60.44c-.3,1.74-4.87,3.84-6.82,3.15-2.31-.82-3.15-4.89-1.86-6.42,1.58-1.87,5.11-1.94,7.28-.51,1.15.76,1.64,2.4,1.4,3.78Z"/>
    </g>
    <text class="cls-1" transform="translate(23.25 14.08)"><tspan x="0" y="0">裏アビコ酒場</tspan></text>
    <g>
      <path d="M93.61,128.45c0,1.44-.64,2.42-1.99,2.92l-17.33,6.19c-.21.08-.47.13-.72.13-1.02,0-1.69-.47-2.03-1.4l-2.61-6.74c-.31-.81.1-1.72.93-2.01l11.56-4.09v-7.63l-16.85.04c-.85,0-1.55-.69-1.55-1.54v-4.32c0-.85.69-1.54,1.54-1.54h7.78v-6.14c0-.66.53-1.19,1.19-1.19h10.59c.64,0,1.26.77,1.19,1.19v6.19l7.12-.04c.5,0,1.19.72,1.19,1.19v18.82Z"/>
      <path d="M105.65,137.34c-.59,0-1.1-.21-1.53-.63s-.64-.93-.64-1.53v-29.8c0-.63.51-1.14,1.14-1.14h6.86c.61,0,1.11.5,1.11,1.11v25.72s0,0,0,0h2.04c.47,0,.84.38.84.84v4.41c0,.56-.45,1.02-1.02,1.02h-8.82ZM140.87,106.99c-.98.93-2.12,1.4-3.48,1.4-.89,0-1.69-.21-2.5-.64v2.03h0s3.84,0,3.84,0c.48,0,.86.39.86.86v4.28c0,.65-.53,1.18-1.18,1.18h-3.53v5.76h0s3.49,0,3.49,0c.46,0,.83.37.83.83v4.54c0,.47-.38.86-.86.86h-3.46v7.42c0,.59-.21,1.06-.63,1.53-.42.42-.93.64-1.48.64h-13.86c-.64,0-1.14-.21-1.57-.64-.38-.47-.59-.97-.59-1.57v-12.21c0-.34.13-.68.34-.97.25-.34.51-.47.85-.47l7.29.04h0v-5.76h0s-7.76,0-7.76,0c-.58,0-1.06-.47-1.06-1.06v-4.25c0-.56.45-1.01,1.01-1.01h7.81v-5.01c0-.89.72-1.6,1.6-1.6h5.24c.23,0,.41-.18.44-.4.16-1.1.65-2.07,1.48-2.86.97-.89,2.08-1.31,3.39-1.31s2.5.47,3.48,1.44c.93.98,1.4,2.12,1.4,3.48s-.47,2.5-1.4,3.47ZM125.57,128.1h-2.54s0,0,0,0v3.26h0s2.54,0,2.54,0c0,0,0,0,0,0v-3.26s0,0,0,0ZM137.98,102.16c-1.12-.35-2.29.82-1.95,1.94.17.54.62.82,1.36.82.38,0,.72-.13,1.02-.42.25-.25.38-.59.38-.97,0-.74-.27-1.19-.82-1.36Z"/>
    </g>
    <g>
      <text class="cls-2" transform="translate(0 133.93)"><tspan x="0" y="0">まる</tspan></text>
      <path d="M54.07,133.85c-.56.14-1.8.49-2.37.56-1.75.22-4.62.29-6.37.16-1.1-.08-2.19-.14-3.24-.52l-2.21-.81c-.44-.26-1.78-.89-1.77-1.37v-.55c0-.09-.06-1.86-.04-2.73.03-.79,1.53.16,2.15.3l.76.19c.13,0,.23-.14.23-.29l.06-5.98c0-.17.09-.27-.36-.28-.18,0-.29-.22-.29-.42v-1.65c0-.65.26-.61.58-.61h13.38c.6-.02.52,0,.56.57v1.73c.01.49-.06.39-.43.42-.08,0-.14.09-.14.17l-.05,6.05c0,.14.09.22.22.22l1.02-.43c.5-.21,1.43-.77,1.53-.15.13.83.07,2.51.09,2.65l-.04.65c-.17.39-.88.94-1.17,1.11M43.79,129.67l.87.24c1.02.38.82-.85.82-1.23v-5.98s-1.55,0-1.55,0c-.13,0-.23.06-.24.2v6.18c.02.1,0,.59.11.59ZM49.38,122.7h-3.01s.02,6.02.02,6.02c0,.39-.22,1.37.71,1.48h1.48c1.08-.13.79-.8.82-1.61l-.02-5.89ZM52.2,122.9c-.01-.09-.08-.19-.19-.19h-1.72s.02,5.88.02,5.88c0,1.06-.09,1.42.66,1.38l.92-.26c.29-.09.35-.17.37-.29"/>
    </g>
  </g>
</svg>